<?xml version="1.0" encoding="UTF-8" standalone="no"?>
<svg
   xmlns:dc="http://purl.org/dc/elements/1.1/"
   xmlns:cc="http://creativecommons.org/ns#"
   xmlns:rdf="http://www.w3.org/1999/02/22-rdf-syntax-ns#"
   xmlns:svg="http://www.w3.org/2000/svg"
   xmlns="http://www.w3.org/2000/svg"
   xmlns:sodipodi="http://sodipodi.sourceforge.net/DTD/sodipodi-0.dtd"
   xmlns:inkscape="http://www.inkscape.org/namespaces/inkscape"
   version="1.1"
   width="812.11249"
   height="232.80997"
   viewBox="0 0 812.11249 232.80997"
   xml:space="preserve"
   id="svg58"
   sodipodi:docname="sshock_logo_black.svg"
   inkscape:version="0.92.4 (5da689c313, 2019-01-14)"><metadata
   id="metadata62"><rdf:RDF><cc:Work
       rdf:about=""><dc:format>image/svg+xml</dc:format><dc:type
         rdf:resource="http://purl.org/dc/dcmitype/StillImage" /><dc:title></dc:title></cc:Work></rdf:RDF></metadata><sodipodi:namedview
   pagecolor="#ffffff"
   bordercolor="#666666"
   borderopacity="1"
   objecttolerance="10"
   gridtolerance="10"
   guidetolerance="10"
   inkscape:pageopacity="0"
   inkscape:pageshadow="2"
   inkscape:window-width="1850"
   inkscape:window-height="1016"
   id="namedview60"
   showgrid="false"
   fit-margin-top="0"
   fit-margin-left="0"
   fit-margin-right="0"
   fit-margin-bottom="0"
   inkscape:zoom="0.23046875"
   inkscape:cx="409.25911"
   inkscape:cy="116.40498"
   inkscape:window-x="1990"
   inkscape:window-y="27"
   inkscape:window-maximized="1"
   inkscape:current-layer="svg58" />
<desc
   id="desc2">Created with Fabric.js 3.1.0</desc>
<defs
   id="defs4">
</defs>

<g
   transform="matrix(1.5745008,0,0,1.5745008,547.19487,116.40498)"
   id="g11">
<path
   style="opacity:1;fill:#100f0d;fill-rule:nonzero;stroke:none;stroke-width:1;stroke-linecap:butt;stroke-linejoin:miter;stroke-miterlimit:4;stroke-dasharray:none;stroke-dashoffset:0;paint-order:stroke"
   transform="translate(-172.895,44.01)"
   d="m 4.64,-15.52 v 0 q 0,-2.1 1.51,-3.62 1.5,-1.53 3.59,-1.53 v 0 q 2.21,0 3.71,1.53 1.5,1.52 1.5,3.62 v 0 q 0,3.34 2.92,5.13 2.92,1.78 6.6,1.78 v 0 q 4.08,0 6.23,-1.67 2.15,-1.67 2.15,-5.52 v 0 q 0,-2.33 -0.88,-3.71 -0.87,-1.39 -2.52,-2.41 v 0 q -0.9,-0.57 -1.89,-0.99 -1,-0.43 -2.13,-0.88 v 0 q -1.13,-0.45 -2.38,-0.79 -1.24,-0.34 -2.55,-0.85 v 0 q -2.54,-0.79 -5.15,-1.9 -2.61,-1.1 -4.73,-2.83 -2.12,-1.73 -3.48,-4.39 -1.36,-2.66 -1.36,-6.74 v 0 q 0,-3.74 1.41,-6.8 1.42,-3.06 3.85,-5.27 2.44,-2.2 5.61,-3.42 3.17,-1.22 6.69,-1.22 v 0 q 3.45,0 6.65,1.22 3.2,1.22 5.58,3.42 2.38,2.21 3.82,5.27 1.45,3.06 1.45,6.8 v 0 q 0,2.09 -1.5,3.6 -1.5,1.5 -3.71,1.5 v 0 q -2.1,0 -3.6,-1.5 -1.5,-1.51 -1.5,-3.6 v 0 q 0,-2.89 -2.1,-4.65 -2.09,-1.75 -5.09,-1.75 v 0 q -3.01,0 -5.1,1.75 -2.1,1.76 -2.1,4.65 v 0 q 0,2.66 3.23,4.3 v 0 q 1.87,1.02 4.19,1.7 v 0 q 1.14,0.57 2.41,0.94 1.27,0.37 2.58,0.93 v 0 q 2.55,0.91 5.15,2.27 2.61,1.36 4.7,3.37 2.1,2.01 3.43,4.93 1.33,2.91 1.33,7.05 v 0 q 0,4.19 -1.44,7.45 -1.45,3.25 -4,5.52 -2.55,2.26 -5.97,3.42 -3.43,1.17 -7.28,1.17 v 0 q -3.46,0 -7,-1.17 -3.54,-1.16 -6.4,-3.37 -2.86,-2.2 -4.64,-5.46 -1.79,-3.26 -1.79,-7.28 z m 47.75,0 v 0 q 0,-2.1 1.5,-3.62 1.5,-1.53 3.6,-1.53 v 0 q 2.21,0 3.71,1.53 1.5,1.52 1.5,3.62 v 0 q 0,3.34 2.92,5.13 2.92,1.78 6.6,1.78 v 0 q 4.07,0 6.23,-1.67 2.15,-1.67 2.15,-5.52 v 0 q 0,-2.33 -0.88,-3.71 -0.88,-1.39 -2.52,-2.41 v 0 q -0.91,-0.57 -1.9,-0.99 -0.99,-0.43 -2.12,-0.88 v 0 q -1.13,-0.45 -2.38,-0.79 -1.25,-0.34 -2.55,-0.85 v 0 q -2.55,-0.79 -5.15,-1.9 -2.61,-1.1 -4.73,-2.83 -2.13,-1.73 -3.49,-4.39 -1.35,-2.66 -1.35,-6.74 v 0 q 0,-3.74 1.41,-6.8 1.42,-3.06 3.85,-5.27 2.44,-2.2 5.61,-3.42 3.17,-1.22 6.68,-1.22 v 0 q 3.46,0 6.66,1.22 3.2,1.22 5.58,3.42 2.38,2.21 3.82,5.27 1.45,3.06 1.45,6.8 v 0 q 0,2.09 -1.51,3.6 -1.5,1.5 -3.7,1.5 v 0 q -2.1,0 -3.6,-1.5 -1.5,-1.51 -1.5,-3.6 v 0 q 0,-2.89 -2.1,-4.65 -2.09,-1.75 -5.1,-1.75 v 0 q -3,0 -5.09,1.75 -2.1,1.76 -2.1,4.65 v 0 q 0,2.66 3.23,4.3 v 0 q 1.87,1.02 4.19,1.7 v 0 q 1.13,0.57 2.41,0.94 1.27,0.37 2.57,0.93 v 0 q 2.55,0.91 5.16,2.27 2.6,1.36 4.7,3.37 2.1,2.01 3.43,4.93 1.33,2.91 1.33,7.05 v 0 q 0,4.19 -1.45,7.45 -1.44,3.25 -3.99,5.52 -2.55,2.26 -5.97,3.42 -3.43,1.17 -7.28,1.17 v 0 q -3.46,0 -7,-1.17 -3.54,-1.16 -6.4,-3.37 -2.86,-2.2 -4.64,-5.46 -1.79,-3.26 -1.79,-7.28 z m 52.74,12.18 v 0 -81.34 q 0,-2.09 1.5,-3.59 1.5,-1.51 3.71,-1.51 v 0 q 2.09,0 3.59,1.51 1.5,1.5 1.5,3.59 v 0 31.21 q 3.01,-2.21 6.69,-3.37 3.68,-1.16 7.36,-1.16 v 0 q 4.98,0 9.4,1.93 4.42,1.92 7.73,5.21 3.32,3.28 5.22,7.7 1.89,4.42 1.89,9.4 v 0 30.42 q 0,2.09 -1.5,3.59 -1.5,1.51 -3.59,1.51 v 0 q -2.21,0 -3.71,-1.53 -1.51,-1.53 -1.51,-3.57 v 0 -30.42 q 0,-2.89 -1.1,-5.38 -1.1,-2.49 -3.03,-4.42 -1.93,-1.92 -4.42,-3.03 -2.49,-1.1 -5.38,-1.1 v 0 q -2.77,0 -5.32,1.1 -2.55,1.11 -4.42,3.03 -1.87,1.93 -2.98,4.42 -1.1,2.49 -1.1,5.38 v 0 q 0,0.46 -0.23,0.91 v 0 29.51 q 0,2.09 -1.5,3.59 -1.5,1.51 -3.59,1.51 v 0 q -2.21,0 -3.71,-1.53 -1.5,-1.53 -1.5,-3.57 z m 60.2,-24.75 v 0 q 0,-6.18 2.38,-11.62 2.38,-5.43 6.43,-9.48 4.05,-4.05 9.52,-6.43 5.46,-2.38 11.58,-2.38 v 0 q 6.17,0 11.55,2.38 5.39,2.38 9.46,6.43 4.08,4.05 6.46,9.51 2.38,5.47 2.38,11.59 v 0 q 0,6.17 -2.38,11.55 -2.38,5.38 -6.46,9.46 -4.07,4.08 -9.46,6.46 -5.38,2.38 -11.55,2.38 v 0 q -6.17,0 -11.61,-2.38 -5.44,-2.38 -9.49,-6.46 -4.05,-4.08 -6.43,-9.46 -2.38,-5.38 -2.38,-11.55 z m 10.31,0 v 0 q 0,4.07 1.56,7.61 1.56,3.54 4.25,6.21 2.69,2.66 6.23,4.16 3.54,1.5 7.56,1.5 v 0 q 4.08,0 7.62,-1.5 3.54,-1.5 6.2,-4.16 2.66,-2.67 4.16,-6.21 1.5,-3.54 1.5,-7.61 v 0 q 0,-4.08 -1.55,-7.59 -1.56,-3.52 -4.17,-6.18 -2.6,-2.66 -6.2,-4.25 -3.59,-1.58 -7.56,-1.58 v 0 q -4.08,0 -7.59,1.58 -3.51,1.59 -6.2,4.25 -2.69,2.66 -4.25,6.2 -1.56,3.54 -1.56,7.57 z m 58.46,0 v 0 q 0,-6.18 2.37,-11.62 2.38,-5.43 6.43,-9.48 4.05,-4.05 9.52,-6.43 Q 257.88,-58 264,-58 v 0 q 2.78,0 5.69,0.57 2.92,0.56 5.7,1.67 2.77,1.1 5.26,2.8 2.5,1.7 4.48,3.8 v 0 q 0.57,0.68 1.05,1.55 0.48,0.88 0.48,2.01 v 0 q 0,2.1 -1.53,3.6 -1.53,1.5 -3.74,1.5 v 0 q -1.13,0 -1.95,-0.39 -0.82,-0.4 -1.5,-0.97 v 0 q -3.35,-2.89 -6.49,-4.36 -3.14,-1.47 -7.45,-1.47 v 0 q -4.08,0 -7.59,1.58 -3.51,1.59 -6.2,4.25 -2.69,2.66 -4.25,6.2 -1.56,3.54 -1.56,7.57 v 0 q 0,4.07 1.56,7.61 1.56,3.54 4.25,6.21 2.69,2.66 6.23,4.16 3.54,1.5 7.56,1.5 v 0 q 4.31,0 7.45,-1.44 3.14,-1.45 6.49,-4.34 v 0 q 0.68,-0.56 1.5,-0.99 0.82,-0.42 1.95,-0.42 v 0 q 2.21,0 3.74,1.53 1.53,1.53 1.53,3.62 v 0 q 0,1.13 -0.48,2.01 -0.48,0.88 -1.05,1.56 v 0 q -1.98,2.1 -4.48,3.77 -2.49,1.67 -5.26,2.77 -2.78,1.11 -5.7,1.7 -2.91,0.6 -5.69,0.6 v 0 q -6.17,0 -11.61,-2.38 -5.44,-2.38 -9.49,-6.46 -4.05,-4.08 -6.43,-9.46 -2.37,-5.38 -2.37,-11.55 z m 65.64,24.75 v 0 -81.34 q 0,-2.09 1.5,-3.59 1.5,-1.51 3.6,-1.51 v 0 q 2.1,0 3.6,1.51 1.5,1.5 1.5,3.59 v 0 49.39 l 22.54,-21.58 q 1.36,-1.36 3.4,-1.36 v 0 q 0.06,0 0.17,0 v 0 q 2.09,0 3.6,1.5 1.5,1.51 1.5,3.6 v 0 q 0,2.1 -1.65,3.74 v 0 l -22.03,21.07 22.03,21.24 q 1.65,1.42 1.65,3.74 v 0 q 0,2.09 -1.5,3.59 -1.51,1.51 -3.6,1.51 v 0 q -2.21,0 -3.57,-1.42 v 0 l -22.54,-21.58 v 17.9 q 0,2.09 -1.5,3.59 -1.5,1.51 -3.6,1.51 v 0 q -2.1,0 -3.6,-1.53 -1.5,-1.53 -1.5,-3.57 z"
   id="path9"
   inkscape:connector-curvature="0" />
</g>
<g
   transform="matrix(0.85716659,0,0,0.85716659,118.53296,116.40498)"
   id="logo-logo">
	<g
   transform="matrix(0.2592,0,0,-0.2592,6e-4,9.7900676)"
   id="g15">
<path
   style="opacity:1;fill:#100f0d;fill-rule:nonzero;stroke:none;stroke-width:1;stroke-linecap:butt;stroke-linejoin:miter;stroke-miterlimit:4;stroke-dasharray:none;stroke-dashoffset:0;paint-order:stroke"
   transform="translate(-650.047,-1046.4975)"
   d="m 661.902,1287.97 c -3.882,0.2 -7.867,0.3 -11.757,0.3 l -0.098,0.1 c -107.891,-0.01 -215.684,-41.12 -298.016,-123.45 -2.718,-2.72 -5.441,-5.44 -8.066,-8.26 h -0.004 V 968.133 c 0,-4.094 3.312,-7.403 7.406,-7.403 4.09,0 7.403,3.309 7.403,7.403 v 173.717 l 41.093,-41.1 V 812.027 c 0,-4.089 3.313,-7.402 7.403,-7.402 4.093,0 7.406,3.313 7.406,7.402 v 273.923 l 16.578,-16.58 21.016,-21.02 V 937.902 c 0,-4.093 3.312,-7.402 7.406,-7.402 4.09,0 7.402,3.309 7.402,7.402 v 95.648 c 52.067,35.75 115.043,56.75 182.973,56.75 67.93,0 130.906,-21 182.973,-56.75 v -95.648 c 0,-4.093 3.308,-7.402 7.402,-7.402 4.09,0 7.406,3.309 7.406,7.402 v 110.448 0 l 21.113,21.12 16.481,16.48 V 812.027 c 0,-4.089 3.312,-7.402 7.406,-7.402 4.09,0 7.402,3.313 7.402,7.402 v 288.733 l 41.094,41.09 V 968.133 c 0,-4.094 3.309,-7.403 7.403,-7.403 4.093,0 7.406,3.309 7.406,7.403 v 188.527 c -2.531,2.72 -5.25,5.44 -7.973,8.16 -79.316,79.32 -182.25,120.43 -286.258,123.15"
   id="path13"
   inkscape:connector-curvature="0" />
</g>
	<g
   transform="matrix(0.2592,0,0,-0.2592,6e-4,76.149568)"
   id="g19">
<path
   style="opacity:1;fill:#ed1d24;fill-rule:nonzero;stroke:none;stroke-width:1;stroke-linecap:butt;stroke-linejoin:miter;stroke-miterlimit:4;stroke-dasharray:none;stroke-dashoffset:0;paint-order:stroke"
   transform="translate(-650.047,-790.43775)"
   d="m 713.73,715.648 c 4.09,0 7.403,3.313 7.403,7.403 v 226.363 c 0.019,18.215 -6.918,36.441 -20.817,50.34 -27.761,27.766 -72.777,27.766 -100.543,0 -13.898,-13.899 -20.832,-32.125 -20.812,-50.34 V 723.051 c 0,-4.09 3.309,-7.403 7.402,-7.403 4.094,0 7.403,3.313 7.403,7.403 V 906.57 c 1.914,-2.504 3.722,-5.066 6.007,-7.359 12.063,-12.059 27.407,-18.555 43.153,-20.137 -0.028,-0.261 -0.285,-0.418 -0.285,-0.687 V 567.699 c 0,-4.09 3.312,-7.402 7.402,-7.402 4.094,0 7.406,3.312 7.406,7.402 v 310.688 c 0,0.269 -0.258,0.426 -0.285,0.687 15.746,1.582 31.09,8.078 43.152,20.137 2.289,2.293 4.098,4.855 6.008,7.359 V 723.051 c 0,-4.09 3.313,-7.403 7.406,-7.403"
   id="path17"
   inkscape:connector-curvature="0" />
</g>
	<g
   transform="matrix(0.2592,0,0,-0.2592,16.5233,107.16987)"
   id="g23">
<path
   style="opacity:1;fill:#ed1d24;fill-rule:nonzero;stroke:none;stroke-width:1;stroke-linecap:butt;stroke-linejoin:miter;stroke-miterlimit:4;stroke-dasharray:none;stroke-dashoffset:0;paint-order:stroke"
   transform="translate(-713.8025,-670.7405)"
   d="m 713.801,694.188 c -4.09,0 -7.403,-3.313 -7.403,-7.403 v -32.09 c 0,-4.093 3.313,-7.402 7.403,-7.402 4.094,0 7.406,3.309 7.406,7.402 v 32.09 c 0,4.09 -3.312,7.403 -7.406,7.403"
   id="path21"
   inkscape:connector-curvature="0" />
</g>
	<g
   transform="matrix(0.2592,0,0,-0.2592,-16.5221,107.16987)"
   id="g27">
<path
   style="opacity:1;fill:#ed1d24;fill-rule:nonzero;stroke:none;stroke-width:1;stroke-linecap:butt;stroke-linejoin:miter;stroke-miterlimit:4;stroke-dasharray:none;stroke-dashoffset:0;paint-order:stroke"
   transform="translate(-586.291,-670.7405)"
   d="m 586.289,694.188 c -4.09,0 -7.402,-3.313 -7.402,-7.403 v -32.09 c 0,-4.093 3.312,-7.402 7.402,-7.402 4.094,0 7.406,3.309 7.406,7.402 v 32.09 c 0,4.09 -3.312,7.403 -7.406,7.403"
   id="path25"
   inkscape:connector-curvature="0" />
</g>
	<g
   transform="matrix(0.2592,0,0,-0.2592,77.4059,44.011668)"
   id="g31">
<path
   style="opacity:1;fill:#100f0d;fill-rule:nonzero;stroke:none;stroke-width:1;stroke-linecap:butt;stroke-linejoin:miter;stroke-miterlimit:4;stroke-dasharray:none;stroke-dashoffset:0;paint-order:stroke"
   transform="translate(-948.7285,-914.4475)"
   d="m 948.727,940.977 c -4.094,0 -7.403,-3.313 -7.403,-7.407 v -38.246 c 0,-4.094 3.309,-7.406 7.403,-7.406 4.093,0 7.406,3.312 7.406,7.406 v 38.246 c 0,4.094 -3.313,7.407 -7.406,7.407"
   id="path29"
   inkscape:connector-curvature="0" />
</g>
	<g
   transform="matrix(0.2592,0,0,-0.2592,-77.4046,44.011668)"
   id="g35">
<path
   style="opacity:1;fill:#100f0d;fill-rule:nonzero;stroke:none;stroke-width:1;stroke-linecap:butt;stroke-linejoin:miter;stroke-miterlimit:4;stroke-dasharray:none;stroke-dashoffset:0;paint-order:stroke"
   transform="translate(-351.3655,-914.4475)"
   d="m 351.367,940.977 c -4.094,0 -7.406,-3.313 -7.406,-7.407 v -38.246 c 0,-4.094 3.312,-7.406 7.406,-7.406 4.09,0 7.403,3.312 7.403,7.406 v 38.246 c 0,4.094 -3.313,7.407 -7.403,7.407"
   id="path33"
   inkscape:connector-curvature="0" />
</g>
	<g
   transform="matrix(0.2592,0,0,-0.2592,94.6777,6.5343676)"
   id="g39">
<path
   style="opacity:1;fill:#100f0d;fill-rule:nonzero;stroke:none;stroke-width:1;stroke-linecap:butt;stroke-linejoin:miter;stroke-miterlimit:4;stroke-dasharray:none;stroke-dashoffset:0;paint-order:stroke"
   transform="translate(-1015.375,-1059.06)"
   d="m 1015.37,1084.6 c -4.09,0 -7.4,-3.31 -7.4,-7.41 v -36.27 c 0,-4.09 3.31,-7.4 7.4,-7.4 4.09,0 7.41,3.31 7.41,7.4 v 36.27 c 0,4.1 -3.32,7.41 -7.41,7.41"
   id="path37"
   inkscape:connector-curvature="0" />
</g>
	<g
   transform="matrix(0.2592,0,0,-0.2592,-94.676,6.5343676)"
   id="g43">
<path
   style="opacity:1;fill:#100f0d;fill-rule:nonzero;stroke:none;stroke-width:1;stroke-linecap:butt;stroke-linejoin:miter;stroke-miterlimit:4;stroke-dasharray:none;stroke-dashoffset:0;paint-order:stroke"
   transform="translate(-284.7205,-1059.06)"
   d="m 284.723,1084.6 c -4.094,0 -7.407,-3.31 -7.407,-7.41 v -36.27 c 0,-4.09 3.313,-7.4 7.407,-7.4 4.09,0 7.402,3.31 7.402,7.4 v 36.27 c 0,4.1 -3.312,7.41 -7.402,7.41"
   id="path41"
   inkscape:connector-curvature="0" />
</g>
	<g
   transform="matrix(0.2592,0,0,-0.2592,0,-43.409432)"
   id="g47">
<path
   style="opacity:1;fill:#100f0d;fill-rule:nonzero;stroke:none;stroke-width:1;stroke-linecap:butt;stroke-linejoin:miter;stroke-miterlimit:4;stroke-dasharray:none;stroke-dashoffset:0;paint-order:stroke"
   transform="translate(-650.0445,-1251.777)"
   d="m 1183.55,1384.08 c -1.65,1.78 -3.43,3.56 -5.21,5.35 -143.39,143.38 -330.492,216.31 -518.43,218.67 -3.246,0.06 -6.488,0.13 -9.801,0.13 -3.308,0 -6.55,-0.07 -9.796,-0.13 -187.938,-2.36 -375.043,-75.29 -518.426,-218.67 -1.762,-1.76 -3.52,-3.53 -5.223,-5.35 h -0.125 v -321.69 c 0,-4.09 3.309,-7.41 7.402,-7.41 4.094,0 7.407,3.32 7.407,7.41 v 306.88 l 66.136,-66.14 v 0 -400.403 c 0,-4.09 3.313,-7.403 7.403,-7.403 4.093,0 7.406,3.313 7.406,7.403 v 385.603 l 58.961,-58.96 6.062,-6.07 v 0 -115.14 c 0,-4.09 3.313,-7.4 7.407,-7.4 4.09,0 7.402,3.31 7.402,7.4 v 100.33 0 c 1.719,1.85 3.504,3.63 5.285,5.41 97.371,97.37 224.969,146.06 352.637,146.06 127.664,0 255.332,-48.75 352.703,-146.12 1.78,-1.78 3.5,-3.5 5.22,-5.35 v -100.33 c 0,-4.09 3.31,-7.4 7.4,-7.4 4.09,0 7.41,3.31 7.41,7.4 v 115.14 l 6.13,6.13 58.89,58.89 V 902.727 c 0,-4.09 3.31,-7.403 7.4,-7.403 4.1,0 7.41,3.313 7.41,7.403 v 400.403 0 l 66.14,66.14 v -306.88 c 0,-4.09 3.31,-7.41 7.4,-7.41 4.09,0 7.4,3.32 7.4,7.41 v 321.69 0"
   id="path45"
   inkscape:connector-curvature="0" />
</g>
	<g
   transform="matrix(0.2592,0,0,-0.2592,136.3436,22.266168)"
   id="g51">
<path
   style="opacity:1;fill:#100f0d;fill-rule:nonzero;stroke:none;stroke-width:1;stroke-linecap:butt;stroke-linejoin:miter;stroke-miterlimit:4;stroke-dasharray:none;stroke-dashoffset:0;paint-order:stroke"
   transform="translate(-1176.15,-998.356)"
   d="m 1176.15,1027.97 c -4.09,0 -7.4,-3.31 -7.4,-7.4 v -44.425 c 0,-4.094 3.31,-7.403 7.4,-7.403 4.09,0 7.4,3.309 7.4,7.403 v 44.425 c 0,4.09 -3.31,7.4 -7.4,7.4"
   id="path49"
   inkscape:connector-curvature="0" />
</g>
	<g
   transform="matrix(0.2592,0,0,-0.2592,-136.3424,22.266168)"
   id="g55">
<path
   style="opacity:1;fill:#100f0d;fill-rule:nonzero;stroke:none;stroke-width:1;stroke-linecap:butt;stroke-linejoin:miter;stroke-miterlimit:4;stroke-dasharray:none;stroke-dashoffset:0;paint-order:stroke"
   transform="translate(-123.9435,-998.356)"
   d="m 123.941,1027.97 c -4.093,0 -7.402,-3.31 -7.402,-7.4 v -44.425 c 0,-4.094 3.309,-7.403 7.402,-7.403 4.094,0 7.407,3.309 7.407,7.403 v 44.425 c 0,4.09 -3.313,7.4 -7.407,7.4"
   id="path53"
   inkscape:connector-curvature="0" />
</g>
</g>
</svg>